<svg width="32" height="32" viewBox="0 0 32 32" fill="none" xmlns="http://www.w3.org/2000/svg">
<rect x="0.5" y="0.5" width="31" height="31" rx="3.5" fill="black"/>
<rect x="0.5" y="0.5" width="31" height="31" rx="3.5" stroke="black"/>
<g clip-path="url(#clip0_459_7311)">
<path d="M27.7433 16.0037C27.7433 22.4899 22.4859 27.7535 15.9935 27.7535C9.50732 27.7472 4.25 22.4899 4.25 16.0037C4.25 9.51756 9.50732 4.25391 15.9998 4.25391C22.4859 4.25391 27.7433 9.51123 27.7433 16.0037Z" fill="#E8F0FC" fill-opacity="0.32"/>
<path d="M16.0032 28C9.38401 28 4 22.616 4 16.0032C4 9.38401 9.38401 4 16.0032 4C22.6223 4 28.0063 9.38401 28.0063 16.0032C28 22.616 22.616 28 16.0032 28ZM16.0032 4.50673C9.66271 4.50673 4.50673 9.66271 4.50673 16.0032C4.50673 22.3436 9.66271 27.4996 16.0032 27.4996C22.3436 27.4996 27.4996 22.3436 27.4996 16.0032C27.4933 9.66271 22.3373 4.50673 16.0032 4.50673Z" fill="white"/>
<path d="M16.0007 23.4642C11.8898 23.4642 8.53906 20.1198 8.53906 16.0026C8.53906 11.8854 11.8835 8.54102 16.0007 8.54102C20.1178 8.54102 23.4623 11.8854 23.4623 16.0026C23.4559 20.1135 20.1115 23.4642 16.0007 23.4642ZM16.0007 8.73104C11.9912 8.73104 8.72909 11.9931 8.72909 16.0026C8.72909 20.0121 11.9912 23.2742 16.0007 23.2742C20.0102 23.2742 23.2722 20.0121 23.2722 16.0026C23.2659 11.9931 20.0102 8.73104 16.0007 8.73104Z" fill="white"/>
<path d="M16.0039 27.1837C9.84085 27.1837 4.82422 22.1671 4.82422 16.0039C4.82422 9.84085 9.84085 4.82422 16.0039 4.82422C22.1671 4.82422 27.1837 9.84085 27.1837 16.0039C27.1837 22.1671 22.1671 27.1837 16.0039 27.1837ZM16.0039 5.07125C9.9802 5.07125 5.07758 9.97386 5.07758 15.9976C5.07758 22.0214 9.9802 26.924 16.0039 26.924C22.0277 26.924 26.9303 22.0214 26.9303 15.9976C26.9303 9.97386 22.0277 5.07125 16.0039 5.07125Z" fill="white"/>
<path d="M15.9867 22.7057C12.2939 22.7057 9.28516 19.697 9.28516 16.0042C9.28516 12.3114 12.2939 9.30273 15.9867 9.30273C19.6795 9.30273 22.6882 12.3114 22.6882 16.0042C22.6882 19.697 19.6858 22.7057 15.9867 22.7057ZM15.9867 9.49276C12.3952 9.49276 9.47518 12.4128 9.47518 16.0042C9.47518 19.5957 12.3952 22.5157 15.9867 22.5157C19.5781 22.5157 22.4981 19.5957 22.4981 16.0042C22.4981 12.4128 19.5781 9.49276 15.9867 9.49276Z" fill="white"/>
<path d="M24.9855 14.6797L25.1755 15.0661L25.6062 15.1231L25.2959 15.4271L25.3656 15.8515L24.9855 15.6488L24.6055 15.8515L24.6815 15.4271L24.3711 15.1231L24.7955 15.0661L24.9855 14.6797Z" fill="white"/>
<path d="M23.8864 20.0449L24.0764 20.4313L24.5008 20.4946L24.1904 20.7923L24.2664 21.2167L23.8864 21.0204L23.5 21.2167L23.576 20.7923L23.2656 20.4946L23.69 20.4313L23.8864 20.0449Z" fill="white"/>
<path d="M24.7785 17.4434L24.9685 17.8297L25.3929 17.8931L25.0888 18.1908L25.1585 18.6152L24.7785 18.4188L24.3984 18.6152L24.4681 18.1908L24.1641 17.8931L24.5884 17.8297L24.7785 17.4434Z" fill="white"/>
<path d="M6.92543 14.6738L6.73541 15.0602L6.30469 15.1236L6.61506 15.4276L6.54538 15.852L6.92543 15.6493L7.30548 15.852L7.22947 15.4276L7.53984 15.1236L7.11546 15.0602L6.92543 14.6738Z" fill="white"/>
<path d="M8.2316 20.0117L8.04157 20.3981L7.61719 20.4614L7.92756 20.7591L7.85155 21.1835L8.2316 20.9872L8.61165 21.1835L8.54197 20.7591L8.85234 20.4614L8.42162 20.3981L8.2316 20.0117Z" fill="white"/>
<path d="M7.14418 17.4199L6.95416 17.8063L6.52344 17.8696L6.83381 18.1737L6.76413 18.5981L7.14418 18.3954L7.52423 18.5981L7.44822 18.1737L7.75859 17.8696L7.33421 17.8063L7.14418 17.4199Z" fill="white"/>
<path d="M20.1761 14.9432H12.0938V14.3985L16.1349 11.4531L20.1761 14.3985V14.9432Z" fill="white"/>
<path d="M19.8149 14.6172H12.4609V15.2379H19.8149V14.6172Z" fill="white"/>
<path d="M19.8136 19.2109H12.3203V19.6733H19.8136V19.2109Z" fill="white"/>
<path d="M20.1787 19.6699H11.957V20.1006H20.1787V19.6699Z" fill="white"/>
<path d="M13.9994 15.3496H12.8086V15.622H13.9994V15.3496Z" fill="white"/>
<path d="M13.9994 18.834H12.8086V19.1064H13.9994V18.834Z" fill="white"/>
<path d="M13.875 15.4805H12.9375V18.8502H13.875V15.4805Z" fill="white"/>
<path d="M16.7455 15.3496H15.5547V15.622H16.7455V15.3496Z" fill="white"/>
<path d="M16.7455 18.834H15.5547V19.1064H16.7455V18.834Z" fill="white"/>
<path d="M16.6132 15.4805H15.6758V18.8502H16.6132V15.4805Z" fill="white"/>
<path d="M19.4916 15.3496H18.3008V15.622H19.4916V15.3496Z" fill="white"/>
<path d="M19.4916 18.834H18.3008V19.1064H19.4916V18.834Z" fill="white"/>
<path d="M19.3671 15.4805H18.4297V18.8502H19.3671V15.4805Z" fill="white"/>
<path d="M11.4325 14.0256C11.3058 14.4183 10.9005 14.6464 10.9005 14.6464C10.9005 14.6464 10.6914 14.2283 10.8181 13.8356C10.9448 13.4365 11.3502 13.2148 11.3502 13.2148C11.3502 13.2148 11.5529 13.6329 11.4325 14.0256Z" fill="white"/>
<path d="M11.4832 15.3086C11.1538 15.5619 10.6914 15.5176 10.6914 15.5176C10.6914 15.5176 10.7611 15.0552 11.0841 14.8019C11.4135 14.5485 11.8759 14.5928 11.8759 14.5928C11.8759 14.5928 11.8125 15.0489 11.4832 15.3086Z" fill="white"/>
<path d="M10.0513 15.0085C10.2476 15.3759 10.6847 15.5216 10.6847 15.5216C10.6847 15.5216 10.8114 15.0718 10.615 14.7045C10.4187 14.3371 9.98161 14.1914 9.98161 14.1914C9.98161 14.1914 9.85493 14.6411 10.0513 15.0085Z" fill="white"/>
<path d="M11.4485 16.1416C11.1382 16.4203 10.6758 16.4076 10.6758 16.4076C10.6758 16.4076 10.7075 15.9452 11.0178 15.6665C11.3282 15.3878 11.7906 15.4005 11.7906 15.4005C11.7906 15.4005 11.7589 15.8629 11.4485 16.1416Z" fill="white"/>
<path d="M9.99458 15.9509C10.2163 16.2993 10.666 16.4133 10.666 16.4133C10.666 16.4133 10.761 15.9573 10.5393 15.6089C10.3176 15.2605 9.8679 15.1465 9.8679 15.1465C9.8679 15.1465 9.77288 15.5962 9.99458 15.9509Z" fill="white"/>
<path d="M11.5046 16.9671C11.2322 17.2774 10.7698 17.3154 10.7698 17.3154C10.7698 17.3154 10.7508 16.8531 11.0232 16.5364C11.2955 16.226 11.7579 16.1816 11.7579 16.1816C11.7579 16.1816 11.7833 16.6567 11.5046 16.9671Z" fill="white"/>
<path d="M10.0361 16.9495C10.2958 17.2725 10.7582 17.3359 10.7582 17.3359C10.7582 17.3359 10.7962 16.8735 10.5365 16.5504C10.2768 16.2274 9.81445 16.1641 9.81445 16.1641C9.81445 16.1641 9.77644 16.6201 10.0361 16.9495Z" fill="white"/>
<path d="M11.7893 17.8249C11.593 18.1923 11.1496 18.338 11.1496 18.338C11.1496 18.338 11.0229 17.8883 11.2193 17.5209C11.4156 17.1535 11.859 17.0078 11.859 17.0078C11.859 17.0078 11.9857 17.4639 11.7893 17.8249Z" fill="white"/>
<path d="M10.3537 18.1426C10.683 18.3959 11.1454 18.3516 11.1454 18.3516C11.1454 18.3516 11.0757 17.8892 10.7527 17.6358C10.4233 17.3825 9.96094 17.4268 9.96094 17.4268C9.96094 17.4268 10.0243 17.8892 10.3537 18.1426Z" fill="white"/>
<path d="M12.2591 18.5686C12.1324 18.9613 11.727 19.1893 11.727 19.1893C11.727 19.1893 11.5243 18.7713 11.651 18.3786C11.7777 17.9858 12.1831 17.7578 12.1831 17.7578C12.1831 17.7578 12.3858 18.1759 12.2591 18.5686Z" fill="white"/>
<path d="M10.9022 19.1396C11.2696 19.3296 11.7193 19.203 11.7193 19.203C11.7193 19.203 11.5673 18.7596 11.1999 18.5696C10.8325 18.3795 10.3828 18.5062 10.3828 18.5062C10.3828 18.5062 10.5285 18.9496 10.9022 19.1396Z" fill="white"/>
<path d="M12.0839 19.597C12.0776 19.597 12.0776 19.5907 12.0713 19.5907C11.7229 19.3627 11.1971 18.7609 10.8741 17.8362C10.6144 17.1014 10.4117 15.9233 10.8931 14.4727C10.8994 14.4474 10.9311 14.4347 10.9564 14.4411C10.9818 14.4474 10.9944 14.4791 10.9881 14.5044C10.171 16.9684 11.3238 18.9763 12.1283 19.502C12.1536 19.5147 12.1599 19.5464 12.1409 19.5717C12.1283 19.597 12.1093 19.6034 12.0839 19.597Z" fill="white"/>
<path d="M20.6554 14.0256C20.782 14.4183 21.1874 14.6464 21.1874 14.6464C21.1874 14.6464 21.3965 14.2283 21.2698 13.8356C21.1431 13.4365 20.7377 13.2148 20.7377 13.2148C20.7377 13.2148 20.535 13.6329 20.6554 14.0256Z" fill="white"/>
<path d="M20.5958 15.3086C20.9252 15.5619 21.3876 15.5176 21.3876 15.5176C21.3876 15.5176 21.3179 15.0552 20.9949 14.8019C20.6655 14.5485 20.2031 14.5928 20.2031 14.5928C20.2031 14.5928 20.2665 15.0489 20.5958 15.3086Z" fill="white"/>
<path d="M22.0369 15.0085C21.8405 15.3759 21.4035 15.5216 21.4035 15.5216C21.4035 15.5216 21.2768 15.0718 21.4732 14.7045C21.6695 14.3371 22.1066 14.1914 22.1066 14.1914C22.1066 14.1914 22.2333 14.6411 22.0369 15.0085Z" fill="white"/>
<path d="M20.635 16.1416C20.9454 16.4203 21.4078 16.4076 21.4078 16.4076C21.4078 16.4076 21.3761 15.9452 21.0657 15.6665C20.7554 15.3878 20.293 15.4005 20.293 15.4005C20.293 15.4005 20.331 15.8629 20.635 16.1416Z" fill="white"/>
<path d="M22.1018 15.9509C21.8801 16.2993 21.4304 16.4133 21.4304 16.4133C21.4304 16.4133 21.3354 15.9573 21.5571 15.6089C21.7788 15.2605 22.2285 15.1465 22.2285 15.1465C22.2285 15.1465 22.3172 15.5962 22.1018 15.9509Z" fill="white"/>
<path d="M20.574 16.9671C20.8463 17.2774 21.3087 17.3154 21.3087 17.3154C21.3087 17.3154 21.3277 16.8531 21.0554 16.5364C20.783 16.226 20.3206 16.1816 20.3206 16.1816C20.3206 16.1816 20.3016 16.6567 20.574 16.9671Z" fill="white"/>
<path d="M22.0483 16.9495C21.7886 17.2725 21.3262 17.3359 21.3262 17.3359C21.3262 17.3359 21.2882 16.8735 21.5479 16.5504C21.8076 16.2274 22.27 16.1641 22.27 16.1641C22.27 16.1641 22.308 16.6201 22.0483 16.9495Z" fill="white"/>
<path d="M20.2935 17.8249C20.4898 18.1923 20.9332 18.338 20.9332 18.338C20.9332 18.338 21.0599 17.8883 20.8635 17.5209C20.6672 17.1535 20.2238 17.0078 20.2238 17.0078C20.2238 17.0078 20.0971 17.4639 20.2935 17.8249Z" fill="white"/>
<path d="M21.7332 18.1426C21.4038 18.3959 20.9414 18.3516 20.9414 18.3516C20.9414 18.3516 21.0111 17.8892 21.3341 17.6358C21.6635 17.3825 22.1259 17.4268 22.1259 17.4268C22.1259 17.4268 22.0562 17.8892 21.7332 18.1426Z" fill="white"/>
<path d="M19.8307 18.5686C19.9574 18.9613 20.3628 19.1893 20.3628 19.1893C20.3628 19.1893 20.5655 18.7713 20.4388 18.3786C20.3121 17.9858 19.9067 17.7578 19.9067 17.7578C19.9067 17.7578 19.704 18.1759 19.8307 18.5686Z" fill="white"/>
<path d="M21.1882 19.1396C20.8208 19.3296 20.3711 19.203 20.3711 19.203C20.3711 19.203 20.5231 18.7596 20.8905 18.5696C21.2579 18.3795 21.7076 18.5062 21.7076 18.5062C21.7076 18.5062 21.5556 18.9496 21.1882 19.1396Z" fill="white"/>
<path d="M19.9899 19.597C19.9963 19.597 19.9963 19.5907 20.0026 19.5907C20.351 19.3627 20.8767 18.7609 21.1997 17.8362C21.4594 17.1014 21.6621 15.9233 21.1807 14.4727C21.1744 14.4474 21.1427 14.4347 21.1174 14.4411C21.0921 14.4474 21.0794 14.4791 21.0857 14.5044C21.9028 16.9684 20.75 18.9763 19.9456 19.502C19.9203 19.5147 19.9139 19.5464 19.9329 19.5717C19.9456 19.597 19.9709 19.6034 19.9899 19.597Z" fill="white"/>
<path d="M6.67188 13.3084L6.72255 13.1501L7.55232 13.4098L7.679 12.998L7.81835 13.0424L7.641 13.6125L6.67188 13.3084Z" fill="white"/>
<path d="M7.1649 11.9531L8.09602 12.3648L8.03268 12.5169L7.10156 12.1051L7.1649 11.9531Z" fill="white"/>
<path d="M7.82304 10.7324L7.94972 10.8084L7.70903 11.2201L7.96239 11.3722L8.16508 11.0365L8.29177 11.1125L8.08907 11.4482L8.46279 11.6699L8.38044 11.8092L7.5 11.2835L7.82304 10.7324Z" fill="white"/>
<path d="M8.64609 9.63477L8.76011 9.72978L8.44974 10.1098L8.67143 10.2872L8.92479 9.97047L9.03881 10.0592L8.78544 10.3759L9.01347 10.5595L9.33018 10.1668L9.44419 10.2618L9.01981 10.7812L8.23438 10.1478L8.64609 9.63477Z" fill="white"/>
<path d="M9.31543 9.02766C9.34077 8.94531 9.39144 8.87564 9.46112 8.80596C9.51812 8.75529 9.57513 8.72362 9.64481 8.70462C9.70815 8.68561 9.77149 8.68561 9.84116 8.69828C9.90451 8.71095 9.96785 8.74262 10.0185 8.78696L9.89184 8.90097C9.83483 8.86297 9.77782 8.84397 9.72082 8.8503C9.66381 8.85664 9.6068 8.88197 9.55613 8.92631C9.51179 8.97065 9.48012 9.01499 9.46745 9.072C9.45478 9.129 9.45478 9.18601 9.47379 9.24302C9.49279 9.30002 9.52446 9.35703 9.57513 9.41404C9.6258 9.46471 9.67648 9.50905 9.73348 9.53439C9.79049 9.55972 9.8475 9.56606 9.90451 9.55972C9.96151 9.55339 10.0122 9.52805 10.0565 9.48371C10.1072 9.43937 10.1389 9.38237 10.1452 9.32536C10.1579 9.26835 10.1452 9.20501 10.1135 9.14801L10.2339 9.04032C10.2719 9.10367 10.2972 9.16067 10.3036 9.23035C10.3099 9.29369 10.3036 9.35703 10.2782 9.42037C10.2529 9.48371 10.2149 9.54072 10.1579 9.59139C10.0882 9.65474 10.0059 9.69907 9.92351 9.71808C9.84116 9.73708 9.75882 9.73074 9.67648 9.69907C9.59413 9.6674 9.51812 9.6104 9.44845 9.53439C9.37877 9.45838 9.33443 9.37603 9.3091 9.29369C9.28376 9.21135 9.2901 9.11 9.31543 9.02766Z" fill="white"/>
<path d="M10.5859 7.94948L10.7506 7.8418L11.6184 8.49421L11.4727 8.58922L11.2574 8.43087L10.909 8.65256L10.966 8.91226L10.8203 9.00728L10.5859 7.94948ZM11.1433 8.33586L10.7696 8.05082L10.8773 8.51321L11.1433 8.33586Z" fill="white"/>
<path d="M12.2337 7.11877C12.2907 7.12511 12.3477 7.13777 12.3921 7.17578C12.4364 7.20745 12.4744 7.25812 12.4997 7.31513C12.5251 7.37847 12.5378 7.44181 12.5251 7.49882C12.5124 7.56216 12.4871 7.61283 12.4364 7.65717L12.7974 7.94221L12.6328 8.01822L12.3097 7.75852L12.107 7.8472L12.259 8.1829L12.107 8.24625L11.6953 7.31513L12.0564 7.15678C12.1134 7.12511 12.1767 7.11244 12.2337 7.11877ZM12.24 7.61917C12.2971 7.59383 12.3287 7.56216 12.3477 7.51782C12.3667 7.47348 12.3667 7.42914 12.3414 7.37847C12.3161 7.3278 12.2844 7.29613 12.24 7.28346C12.1957 7.27079 12.145 7.27079 12.088 7.29613L11.8917 7.3848L12.0374 7.71418L12.24 7.61917Z" fill="white"/>
<path d="M13.3792 6.6898C13.4806 6.66446 13.5692 6.66446 13.6516 6.68347C13.7339 6.70247 13.8099 6.74681 13.8669 6.81015C13.9239 6.87349 13.9683 6.95583 13.9936 7.05085C14.019 7.14586 14.019 7.24087 13.9999 7.32321C13.9809 7.40556 13.9366 7.48157 13.8733 7.54491C13.8099 7.60825 13.7276 7.64625 13.6326 7.67792L13.3222 7.76027L13.0625 6.77214L13.3792 6.6898ZM13.8163 7.37389C13.8543 7.29788 13.8606 7.20287 13.8353 7.09519C13.8036 6.98751 13.7529 6.9115 13.6832 6.86082C13.6072 6.81015 13.5186 6.80382 13.4172 6.82915L13.2652 6.86716L13.4489 7.57024L13.6009 7.53224C13.7086 7.5069 13.7783 7.4499 13.8163 7.37389Z" fill="white"/>
<path d="M15.6725 6.93673C15.6725 7.03174 15.6915 7.10775 15.7295 7.15209C15.7675 7.19643 15.8245 7.22177 15.9005 7.22177C15.9829 7.22177 16.0399 7.19643 16.0779 7.15209C16.1159 7.10142 16.1349 7.03174 16.1349 6.93673V6.34766H16.2996V6.9304C16.2996 7.07608 16.2679 7.18376 16.1982 7.25977C16.1286 7.33578 16.0335 7.37378 15.9005 7.37378C15.7738 7.37378 15.6725 7.33578 15.6092 7.25977C15.5395 7.18376 15.5078 7.07608 15.5078 6.9304V6.34766H15.6725V6.93673Z" fill="white"/>
<path d="M17.0685 6.4043L17.2142 6.42963L17.5816 7.2214L17.6956 6.50564L17.8539 6.53098L17.6956 7.53811L17.5499 7.51277L17.1825 6.721L17.0685 7.43676L16.9102 7.41142L17.0685 6.4043Z" fill="white"/>
<path d="M18.7505 6.7577L18.4591 7.73316L18.3008 7.68249L18.5985 6.70703L18.7505 6.7577Z" fill="white"/>
<path d="M19.5376 7.02623L19.4742 7.88767L20.0506 7.24159L20.209 7.31127L19.4806 8.1157L19.2969 8.03969L19.3729 6.96289L19.5376 7.02623Z" fill="white"/>
<path d="M21.3722 7.97633L21.2962 8.10302L20.8781 7.84965L20.7325 8.09035L21.0745 8.29937L20.9985 8.41972L20.6564 8.2107L20.5044 8.46406L20.9351 8.73009L20.8591 8.85678L20.2891 8.5084L20.8211 7.64062L21.3722 7.97633Z" fill="white"/>
<path d="M22.3854 8.80968C22.4107 8.86669 22.4171 8.91736 22.4044 8.97437C22.3981 9.03138 22.3727 9.08205 22.3284 9.13272C22.284 9.18339 22.2334 9.2214 22.17 9.23407C22.1067 9.25307 22.0497 9.24674 21.9927 9.22773L21.8913 9.67746L21.752 9.55711L21.847 9.15172L21.676 9.00604L21.4353 9.29107L21.3086 9.18339L21.9673 8.4043L22.2714 8.65766C22.3284 8.70833 22.3664 8.75267 22.3854 8.80968ZM21.942 9.03771C21.9863 9.07571 22.037 9.09472 22.0814 9.08838C22.1257 9.08205 22.17 9.06305 22.208 9.02504C22.246 8.9807 22.2587 8.93636 22.2524 8.89202C22.246 8.84769 22.2207 8.80335 22.1764 8.76534L22.0117 8.62599L21.7837 8.89836L21.942 9.03771Z" fill="white"/>
<path d="M22.5623 10.0972C22.5623 10.1542 22.5876 10.2112 22.632 10.2619C22.67 10.3062 22.7143 10.3379 22.7586 10.3442C22.803 10.3569 22.841 10.3442 22.879 10.3126C22.9043 10.2872 22.917 10.2619 22.917 10.2366C22.917 10.2049 22.9107 10.1796 22.898 10.1416C22.8853 10.1099 22.86 10.0655 22.822 10.0085C22.7903 9.95153 22.765 9.90086 22.746 9.85019C22.727 9.80585 22.727 9.75517 22.7333 9.71084C22.7396 9.6665 22.7713 9.61582 22.822 9.57782C22.8663 9.53981 22.917 9.51448 22.9677 9.50814C23.0247 9.50181 23.0753 9.50814 23.1324 9.53348C23.1894 9.55882 23.24 9.59682 23.2844 9.64749C23.3287 9.69817 23.3667 9.75517 23.3794 9.81852C23.3984 9.88186 23.3984 9.93886 23.3857 9.99587C23.373 10.0529 23.3414 10.1036 23.297 10.1416L23.1894 10.0212C23.2274 9.9832 23.24 9.93886 23.24 9.88819C23.24 9.83752 23.2147 9.78685 23.1767 9.74251C23.1387 9.69817 23.1007 9.67283 23.0563 9.66016C23.012 9.65383 22.974 9.66016 22.9423 9.69183C22.917 9.71084 22.9043 9.73617 22.9043 9.76784C22.9043 9.79318 22.9107 9.82485 22.9233 9.85652C22.936 9.88819 22.9613 9.93253 22.9993 9.98954C23.031 10.0465 23.0563 10.0972 23.0753 10.1479C23.0943 10.1986 23.0943 10.2429 23.088 10.2936C23.0817 10.3379 23.05 10.3823 23.0057 10.4266C22.9613 10.4646 22.9107 10.4899 22.8537 10.4963C22.7966 10.5026 22.7396 10.4963 22.6826 10.4709C22.6256 10.4456 22.5749 10.4076 22.5243 10.3506C22.4736 10.2936 22.4356 10.2302 22.4166 10.1669C22.3976 10.1036 22.3976 10.0402 22.4166 9.9832C22.4356 9.9262 22.4673 9.86919 22.5179 9.82485L22.6256 9.9452C22.5813 9.98954 22.5623 10.0402 22.5623 10.0972Z" fill="white"/>
<path d="M24.0585 10.6623L23.2161 11.2387L23.1211 11.1057L23.9635 10.5293L24.0585 10.6623Z" fill="white"/>
<path d="M24.7915 11.9326L24.6585 12.0023L24.5128 11.7299L23.7401 12.1353L23.6641 11.9896L24.4368 11.5842L24.2911 11.3119L24.4242 11.2422L24.7915 11.9326Z" fill="white"/>
<path d="M25.1089 12.7067L24.7479 13.1057L25.2799 13.2134L25.3369 13.3907L24.6085 13.2451L24.2538 13.3654L24.2031 13.207L24.5578 13.0867L25.0456 12.5293L25.1089 12.7067Z" fill="white"/>
<path d="M11.4815 23.1935L11.3928 23.3138L10.9937 23.0225L10.8291 23.2505L11.1584 23.4912L11.0761 23.6052L10.7467 23.3645L10.5694 23.6052L10.9874 23.9093L10.8987 24.0296L10.3477 23.6242L10.9494 22.8008L11.4815 23.1935Z" fill="white"/>
<path d="M12.0092 24.4535C12.0345 24.5042 12.0788 24.5485 12.1422 24.5802C12.1992 24.6055 12.2499 24.6182 12.2942 24.6119C12.3385 24.6055 12.3765 24.5802 12.3955 24.5359C12.4082 24.5042 12.4146 24.4788 12.4019 24.4472C12.3892 24.4218 12.3702 24.3965 12.3449 24.3712C12.3195 24.3458 12.2752 24.3142 12.2245 24.2762C12.1675 24.2381 12.1232 24.2001 12.0915 24.1621C12.0598 24.1241 12.0345 24.0798 12.0282 24.0355C12.0155 23.9848 12.0282 23.9341 12.0535 23.8771C12.0788 23.8264 12.1168 23.7821 12.1612 23.7568C12.2055 23.7314 12.2625 23.7188 12.3259 23.7188C12.3892 23.7188 12.4462 23.7378 12.5096 23.7694C12.5729 23.8011 12.6299 23.8391 12.6679 23.8898C12.7059 23.9404 12.7313 23.9911 12.7439 24.0481C12.7566 24.1051 12.7439 24.1621 12.7186 24.2191L12.5729 24.1495C12.5919 24.0988 12.5856 24.0545 12.5666 24.0038C12.5476 23.9594 12.5032 23.9214 12.4526 23.8961C12.4019 23.8708 12.3512 23.8581 12.3069 23.8708C12.2625 23.8771 12.2309 23.9024 12.2119 23.9468C12.1992 23.9784 12.1929 24.0038 12.2055 24.0291C12.2182 24.0545 12.2372 24.0798 12.2625 24.1051C12.2879 24.1305 12.3322 24.1621 12.3829 24.2001C12.4399 24.2381 12.4842 24.2762 12.5159 24.3142C12.5476 24.3522 12.5729 24.3965 12.5856 24.4408C12.5982 24.4852 12.5856 24.5422 12.5602 24.5929C12.5349 24.6499 12.4969 24.6879 12.4462 24.7195C12.3955 24.7512 12.3385 24.7639 12.2752 24.7639C12.2119 24.7639 12.1485 24.7449 12.0852 24.7132C12.0155 24.6752 11.9522 24.6372 11.9142 24.5802C11.8761 24.5232 11.8445 24.4725 11.8381 24.4092C11.8318 24.3458 11.8381 24.2888 11.8698 24.2255L12.0155 24.3015C11.9838 24.3458 11.9838 24.4028 12.0092 24.4535Z" fill="white"/>
<path d="M14.2966 24.4102L14.2586 24.5559L13.9546 24.4735L13.7202 25.316L13.5619 25.2716L13.7962 24.4292L13.4922 24.3469L13.5302 24.2012L14.2966 24.4102Z" fill="white"/>
<path d="M14.9211 25.3516C14.9527 25.3579 14.9717 25.3706 14.9908 25.3896C15.0098 25.4086 15.0161 25.4339 15.0098 25.4656C15.0034 25.4972 14.9908 25.5162 14.9717 25.5353C14.9527 25.5479 14.9274 25.5543 14.8957 25.5543C14.8641 25.5479 14.8451 25.5353 14.8261 25.5163C14.8071 25.4972 14.8007 25.4719 14.8071 25.4402C14.8134 25.4086 14.8261 25.3896 14.8451 25.3706C14.8704 25.3579 14.8957 25.3516 14.9211 25.3516Z" fill="white"/>
<path d="M16.4374 25.0303C16.4627 24.9923 16.4754 24.948 16.4754 24.9036C16.4754 24.8466 16.4564 24.8023 16.4184 24.7706C16.3804 24.739 16.336 24.7263 16.2727 24.7263C16.2157 24.7263 16.165 24.7453 16.1333 24.7833C16.1017 24.8213 16.0827 24.872 16.0827 24.9353V24.9543L15.918 24.9607V24.9353C15.918 24.872 15.9306 24.815 15.956 24.7643C15.9876 24.7136 16.0256 24.6756 16.0763 24.6439C16.127 24.6123 16.1903 24.5996 16.26 24.5996C16.374 24.5996 16.4627 24.6249 16.526 24.682C16.5894 24.739 16.6211 24.815 16.6274 24.91C16.6274 24.9797 16.6147 25.0367 16.5767 25.0937C16.5387 25.1443 16.488 25.2014 16.4184 25.2647L16.1523 25.4927L16.6464 25.4801V25.6194L15.9243 25.6321V25.5054L16.3107 25.1633C16.374 25.1127 16.412 25.0747 16.4374 25.0303Z" fill="white"/>
<path d="M17.5189 24.726C17.5379 24.6437 17.5695 24.5803 17.6202 24.5233C17.6709 24.4727 17.7342 24.4346 17.8102 24.422C17.8862 24.4093 17.9559 24.4093 18.0256 24.441C18.0953 24.4663 18.1523 24.517 18.2029 24.5803C18.2536 24.6437 18.2853 24.726 18.3043 24.821L18.317 24.8654C18.336 24.9667 18.336 25.0554 18.3233 25.1314C18.3043 25.2137 18.2726 25.2771 18.2219 25.3278C18.1713 25.3784 18.1079 25.4101 18.0319 25.4291C17.9559 25.4481 17.8799 25.4418 17.8166 25.4164C17.7532 25.3911 17.6899 25.3404 17.6455 25.2771C17.5949 25.2137 17.5632 25.1251 17.5442 25.0301L17.5315 24.9857C17.5062 24.8907 17.4999 24.802 17.5189 24.726ZM17.8482 24.555C17.7786 24.5677 17.7279 24.612 17.6962 24.6817C17.6645 24.7514 17.6645 24.8464 17.6835 24.954L17.6899 24.9857C17.7152 25.0934 17.7532 25.1757 17.8102 25.2327C17.8672 25.2834 17.9306 25.3024 18.0003 25.2898C18.0699 25.2771 18.1206 25.2327 18.1523 25.1631C18.1839 25.0934 18.1839 24.9984 18.1649 24.8907L18.1586 24.859C18.1333 24.7514 18.0953 24.669 18.0383 24.612C17.9813 24.5613 17.9179 24.5423 17.8482 24.555Z" fill="white"/>
<path d="M19.5963 24.3286C19.609 24.2842 19.6027 24.2399 19.5837 24.2019C19.5647 24.1512 19.5266 24.1132 19.4823 24.1006C19.438 24.0815 19.3873 24.0879 19.3303 24.1069C19.2733 24.1259 19.2416 24.1639 19.2226 24.2146C19.2036 24.2652 19.2036 24.3159 19.2289 24.3729L19.2353 24.3919L19.0833 24.4553L19.0706 24.4299C19.0453 24.3729 19.0389 24.3096 19.0453 24.2526C19.0516 24.1956 19.0769 24.1449 19.1149 24.0942C19.1529 24.0499 19.2036 24.0119 19.2733 23.9802C19.381 23.9359 19.4696 23.9295 19.552 23.9612C19.6343 23.9929 19.6913 24.0499 19.723 24.1386C19.7483 24.2019 19.7547 24.2652 19.742 24.3286C19.7293 24.3919 19.6977 24.4616 19.6533 24.5439L19.4886 24.8543L19.9447 24.6706L19.9954 24.8036L19.324 25.076L19.2733 24.9557L19.5076 24.4996C19.5647 24.4236 19.5837 24.3729 19.5963 24.3286Z" fill="white"/>
<path d="M20.4905 23.6509C20.4778 23.5686 20.4842 23.4925 20.5158 23.4292C20.5475 23.3595 20.5918 23.3089 20.6552 23.2645C20.7185 23.2202 20.7882 23.2012 20.8642 23.2012C20.9402 23.2012 21.0099 23.2265 21.0796 23.2708C21.1492 23.3152 21.2126 23.3785 21.2633 23.4609L21.2886 23.4989C21.3456 23.5812 21.3773 23.6636 21.3899 23.7459C21.4026 23.8283 21.3963 23.8979 21.3646 23.9676C21.3329 24.0309 21.2886 24.0879 21.2189 24.1323C21.1492 24.1766 21.0796 24.1956 21.0099 24.1956C20.9402 24.1956 20.8642 24.1703 20.8009 24.126C20.7375 24.0816 20.6678 24.0183 20.6172 23.9296L20.5918 23.8916C20.5348 23.8156 20.5032 23.7332 20.4905 23.6509ZM20.7312 23.3785C20.6678 23.4165 20.6362 23.4735 20.6362 23.5559C20.6362 23.6319 20.6615 23.7206 20.7249 23.8156L20.7439 23.8473C20.8072 23.9423 20.8705 24.0056 20.9402 24.0309C21.0099 24.0626 21.0796 24.0563 21.1366 24.0183C21.1999 23.9803 21.2316 23.9233 21.2316 23.8409C21.2316 23.7586 21.2062 23.6762 21.1429 23.5812L21.1239 23.5495C21.0606 23.4545 20.9972 23.3912 20.9275 23.3659C20.8579 23.3342 20.7945 23.3405 20.7312 23.3785Z" fill="white"/>
</g>
<defs>
<clipPath id="clip0_459_7311">
<rect width="24" height="24" fill="white" transform="translate(4 4)"/>
</clipPath>
</defs>
</svg>
