<svg width="120" height="45" viewBox="0 0 138 57" fill="none" xmlns="http://www.w3.org/2000/svg">
<path d="M0.77702 21.999V1.26303H5.22045V18.1777H13.4556V21.999H0.77702Z" fill="#203854"/>
<path d="M19.3443 1.11492C19.7886 1.55926 20.0256 2.1221 20.0256 2.7738C20.0256 3.45512 19.7886 4.01796 19.3443 4.4623C18.8703 4.93627 18.3075 5.14363 17.6262 5.14363C16.9152 5.14363 16.3524 4.93627 15.8784 4.4623C15.4045 4.01796 15.1971 3.45512 15.1971 2.7738C15.1971 2.1221 15.4045 1.55926 15.8784 1.11492C16.3524 0.670577 16.9152 0.433594 17.6262 0.433594C18.3075 0.433594 18.8703 0.670577 19.3443 1.11492ZM15.523 6.77289H19.6998V21.999H15.523V6.77289Z" fill="#203854"/>
<path d="M23.588 6.77289V5.43986C23.588 4.10683 23.9731 3.09003 24.7433 2.35908C25.5135 1.64813 26.6392 1.26303 28.1796 1.26303H31.5862V4.81778H29.009C28.5646 4.81778 28.2388 4.93627 28.0611 5.114C27.8537 5.32137 27.7648 5.64722 27.7648 6.06194V6.77289H31.5862V10.298H27.7648V21.999H23.588V10.298H21.0701V6.77289H23.588Z" fill="#203854"/>
<path d="M32.9752 10.298C33.6269 9.11309 34.5156 8.22441 35.6709 7.5727C36.8262 6.921 38.1592 6.59515 39.6996 6.59515C41.24 6.59515 42.573 6.921 43.7579 7.51346C44.9428 8.10591 45.8612 8.96498 46.5129 10.061C47.1646 11.1571 47.52 12.4309 47.5497 13.912C47.5497 14.4452 47.4904 14.9192 47.4312 15.3339H36.3818V15.4524C36.4707 16.5781 36.8262 17.4371 37.4483 18.0592C38.0407 18.7109 38.8998 19.0071 39.9662 19.0071C40.7956 19.0071 41.5066 18.8294 42.0694 18.4739C42.6323 18.1184 43.0174 17.5556 43.1951 16.8447H47.3127C47.1349 17.8518 46.7498 18.7701 46.1574 19.57C45.5353 20.3994 44.7355 21.0215 43.7283 21.4954C42.7211 21.9694 41.5658 22.1768 40.2624 22.1768C38.5443 22.1768 37.0928 21.8805 35.8486 21.2288C34.6045 20.6068 33.6565 19.7181 33.0048 18.5332C32.3531 17.3482 32.0273 15.9856 32.0273 14.4156C32.0273 12.8456 32.3235 11.4829 32.9752 10.298ZM43.3728 12.6086C43.2247 11.6903 42.8396 10.9793 42.2175 10.4757C41.5955 9.97215 40.8253 9.70555 39.8773 9.70555C38.959 9.70555 38.1888 9.97215 37.5668 10.5054C36.9447 11.0386 36.5892 11.7199 36.4707 12.6086H43.3728Z" fill="#203854"/>
<path d="M62.0961 20.6068C60.7927 21.6732 59.1338 22.1768 57.0898 22.1768C55.4902 22.1768 54.1276 21.8805 52.9426 21.2288C51.7577 20.5771 50.8394 19.6588 50.1877 18.4739C49.536 17.289 49.2398 15.9263 49.2398 14.386C49.2398 12.8456 49.536 11.4829 50.1877 10.298C50.8394 9.11309 51.7577 8.22441 52.9426 7.5727C54.1276 6.921 55.5198 6.59515 57.1195 6.59515C59.1338 6.59515 60.7927 7.12836 62.0961 8.16516C63.3699 9.20196 64.1697 10.6239 64.4659 12.4605H60.141C59.9633 11.7199 59.6078 11.1274 59.0746 10.6831C58.5414 10.2388 57.86 10.0018 57.0898 10.0018C55.9938 10.0018 55.1347 10.4165 54.483 11.2163C53.8313 12.0458 53.5055 13.0826 53.5055 14.386C53.5055 15.6894 53.8313 16.7558 54.483 17.5556C55.1347 18.385 55.9938 18.7701 57.0898 18.7701C57.8897 18.7701 58.571 18.5628 59.1042 18.0888C59.6374 17.6445 59.9929 17.0224 60.1706 16.2226H64.4659C64.1697 18.0888 63.3995 19.5403 62.0961 20.6068Z" fill="#203854"/>
<path d="M81.7157 18.4739V21.999H79.5828C77.6574 21.999 76.7094 21.1696 76.7687 19.5107C76.2058 20.3994 75.5245 21.0511 74.7247 21.4954C73.8953 21.9694 72.9177 22.1768 71.792 22.1768C70.0739 22.1768 68.7113 21.7917 67.6745 21.0215C66.6377 20.2513 66.1341 19.1256 66.1341 17.7037C66.1341 16.1041 66.7265 14.8599 67.9114 13.9712C69.0964 13.0826 70.8441 12.6382 73.1251 12.6382H76.1466V11.8976C76.1466 11.2163 75.88 10.6831 75.3764 10.2684C74.8432 9.85366 74.1619 9.6463 73.3028 9.6463C72.5326 9.6463 71.8809 9.82404 71.4069 10.1499C70.9033 10.5054 70.6071 10.9497 70.5182 11.5125H66.4895C66.608 9.97215 67.319 8.75762 68.5631 7.89855C69.8073 7.03949 71.4366 6.59515 73.5102 6.59515C75.643 6.59515 77.3019 7.06911 78.4868 8.01705C79.6717 8.96498 80.2642 10.3573 80.2642 12.1346V17.4964C80.2642 17.8815 80.3234 18.1481 80.5012 18.2666C80.6493 18.4147 80.8862 18.4739 81.2417 18.4739H81.7157ZM76.1466 15.4228H73.0954C72.2068 15.4228 71.5254 15.6005 71.0515 15.956C70.5775 16.3114 70.3405 16.7854 70.3405 17.4075C70.3405 17.9407 70.5182 18.385 70.933 18.6813C71.3477 19.0071 71.8809 19.1552 72.5919 19.1552C73.6583 19.1552 74.5173 18.859 75.169 18.2369C75.7911 17.6149 76.117 16.7854 76.1466 15.719V15.4228Z" fill="#203854"/>
<path d="M92.6035 6.77289V10.5646H90.9446C89.7597 10.5646 88.871 10.9201 88.3378 11.631C87.775 12.342 87.5083 13.3195 87.5083 14.5341V21.999H83.3315V6.77289H87.1233L87.5083 9.05385C87.9527 8.31327 88.5155 7.75044 89.1969 7.36534C89.8486 6.98025 90.7669 6.77289 91.8925 6.77289H92.6035Z" fill="#203854"/>
<path d="M109.203 1.26303V21.999H105.56L105.145 19.8958C103.96 21.4362 102.39 22.1768 100.405 22.1768C99.0427 22.1768 97.8578 21.8805 96.7914 21.2288C95.725 20.5771 94.8659 19.6588 94.2735 18.4739C93.681 17.289 93.3848 15.9263 93.3848 14.3563C93.3848 12.8159 93.681 11.4829 94.2735 10.298C94.8659 9.11309 95.725 8.22441 96.7914 7.5727C97.8578 6.921 99.0724 6.59515 100.435 6.59515C102.39 6.59515 103.931 7.3061 105.027 8.66875V1.26303H109.203ZM104.079 17.5852C104.73 16.7854 105.086 15.719 105.086 14.4156C105.086 13.1122 104.73 12.0458 104.079 11.2163C103.397 10.4165 102.509 10.0018 101.383 10.0018C100.257 10.0018 99.339 10.4165 98.6577 11.2163C97.9763 12.0458 97.6505 13.0826 97.6505 14.386C97.6505 15.6894 97.9763 16.7558 98.6577 17.5556C99.339 18.385 100.257 18.7701 101.383 18.7701C102.509 18.7701 103.397 18.385 104.079 17.5852Z" fill="#203854"/>
<path d="M5.07233 30.263V42.2899C5.07233 43.9784 5.39819 45.2522 6.04989 46.0816C6.70159 46.9407 7.70877 47.3554 9.13067 47.3554C10.5229 47.3554 11.5597 46.9407 12.2114 46.0816C12.8631 45.2522 13.2186 43.9784 13.2186 42.2899V30.263H17.6621V42.0529C17.6621 45.0152 16.9215 47.2962 15.47 48.8366C14.0184 50.4066 11.9152 51.1768 9.13067 51.1768C6.34612 51.1768 4.21327 50.4066 2.79137 48.8366C1.33985 47.2962 0.628906 45.0152 0.628906 42.0529V30.263H5.07233Z" fill="#203854"/>
<path d="M33.853 37.254C34.9787 38.3797 35.5711 40.1867 35.5711 42.7343V50.999H31.3943V42.9712C31.3943 40.3644 30.3575 39.0314 28.3135 39.0314C27.2175 39.0314 26.3881 39.4165 25.7956 40.1274C25.2031 40.868 24.9069 41.9048 24.9069 43.2082V50.999H20.7301V35.7729H24.3737L24.7588 37.6687C25.292 37.017 25.9141 36.5135 26.6843 36.158C27.4249 35.8025 28.3432 35.5951 29.4688 35.5951C31.2462 35.5951 32.6977 36.158 33.853 37.254Z" fill="#203854"/>
<path d="M42.0243 30.1149C42.4686 30.5593 42.7056 31.1221 42.7056 31.7738C42.7056 32.4551 42.4686 33.018 42.0243 33.4623C41.5503 33.9363 40.9875 34.1436 40.3062 34.1436C39.5952 34.1436 39.0324 33.9363 38.5584 33.4623C38.0845 33.018 37.8771 32.4551 37.8771 31.7738C37.8771 31.1221 38.0845 30.5593 38.5584 30.1149C39.0324 29.6706 39.5952 29.4336 40.3062 29.4336C40.9875 29.4336 41.5503 29.6706 42.0243 30.1149ZM38.203 35.7729H42.3798V50.999H38.203V35.7729Z" fill="#203854"/>
<path d="M43.8093 35.7729H48.2824L51.9556 46.7333L55.5696 35.7729H59.9538L54.4735 50.999H49.2895L43.8093 35.7729Z" fill="#203854"/>
<path d="M61.1227 39.298C61.7744 38.1131 62.6631 37.2244 63.8184 36.5727C64.9737 35.921 66.3067 35.5951 67.8471 35.5951C69.3875 35.5951 70.7205 35.921 71.9054 36.5135C73.0903 37.1059 74.0087 37.965 74.6604 39.061C75.3121 40.1571 75.6675 41.4309 75.6972 42.912C75.6972 43.4452 75.6379 43.9192 75.5787 44.3339H64.5293V44.4524C64.6182 45.578 64.9737 46.4371 65.5958 47.0592C66.1882 47.7109 67.0473 48.0071 68.1137 48.0071C68.9431 48.0071 69.6541 47.8294 70.2169 47.4739C70.7798 47.1184 71.1649 46.5556 71.3426 45.8447H75.4602C75.2824 46.8518 74.8973 47.7701 74.3049 48.57C73.6828 49.3994 72.883 50.0215 71.8758 50.4954C70.8686 50.9694 69.7133 51.1768 68.4099 51.1768C66.6918 51.1768 65.2403 50.8805 63.9961 50.2288C62.752 49.6068 61.804 48.7181 61.1523 47.5332C60.5006 46.3482 60.1748 44.9856 60.1748 43.4156C60.1748 41.8456 60.471 40.4829 61.1227 39.298ZM71.5203 41.6086C71.3722 40.6903 70.9871 39.9793 70.365 39.4757C69.743 38.9722 68.9728 38.7055 68.0248 38.7055C67.1065 38.7055 66.3363 38.9722 65.7143 39.5054C65.0922 40.0386 64.7367 40.7199 64.6182 41.6086H71.5203Z" fill="#203854"/>
<path d="M87.2517 35.7729V39.5646H85.5928C84.4079 39.5646 83.5192 39.9201 82.986 40.631C82.4232 41.342 82.1566 42.3195 82.1566 43.5341V50.999H77.9797V35.7729H81.7715L82.1566 38.0538C82.6009 37.3133 83.1637 36.7504 83.8451 36.3653C84.4968 35.9802 85.4151 35.7729 86.5407 35.7729H87.2517Z" fill="#203854"/>
<path d="M92.2346 45.9335C92.2938 46.6149 92.6197 47.1481 93.2121 47.5628C93.8046 47.9775 94.5452 48.1849 95.4931 48.1849C96.3818 48.1849 97.0631 48.0664 97.5963 47.7701C98.0999 47.4739 98.3665 47.0592 98.3665 46.526C98.3665 46.1409 98.248 45.8447 98.011 45.6373C97.7741 45.4596 97.4186 45.3114 97.0039 45.2226C96.5595 45.1337 95.8486 45.0152 94.871 44.8967C93.5084 44.719 92.4123 44.5116 91.5236 44.2154C90.635 43.9488 89.924 43.5045 89.3908 42.912C88.8576 42.3195 88.591 41.5493 88.591 40.5422C88.591 39.5646 88.8576 38.7056 89.3908 37.9354C89.924 37.1652 90.6942 36.5727 91.7014 36.158C92.6789 35.7433 93.8046 35.5359 95.108 35.5359C97.1816 35.5655 98.8405 36.0099 100.114 36.8689C101.388 37.7576 102.069 38.9425 102.188 40.4829H98.2184C98.1592 39.9201 97.8333 39.4461 97.3001 39.0906C96.7669 38.7352 96.0559 38.5278 95.2265 38.5278C94.4267 38.5278 93.775 38.6759 93.301 38.9722C92.827 39.2684 92.5901 39.6831 92.5901 40.1571C92.5901 40.5125 92.7085 40.7791 92.9752 40.9569C93.2121 41.1346 93.5676 41.2827 93.9823 41.342C94.3971 41.4309 95.0784 41.5197 96.0559 41.6086C98.0999 41.8456 99.6699 42.2899 100.766 42.9416C101.862 43.5933 102.425 44.6894 102.425 46.2298C102.425 47.2369 102.129 48.096 101.536 48.8366C100.944 49.6068 100.144 50.1696 99.1071 50.5843C98.0703 50.999 96.8854 51.1768 95.5227 51.1768C93.3899 51.1768 91.6717 50.7324 90.3683 49.7845C89.0353 48.8366 88.3244 47.5628 88.2651 45.9335H92.2346Z" fill="#203854"/>
<path d="M108.647 30.1149C109.091 30.5593 109.328 31.1221 109.328 31.7738C109.328 32.4551 109.091 33.018 108.647 33.4623C108.173 33.9363 107.61 34.1436 106.929 34.1436C106.218 34.1436 105.655 33.9363 105.181 33.4623C104.707 33.018 104.5 32.4551 104.5 31.7738C104.5 31.1221 104.707 30.5593 105.181 30.1149C105.655 29.6706 106.218 29.4336 106.929 29.4336C107.61 29.4336 108.173 29.6706 108.647 30.1149ZM104.825 35.7729H109.002V50.999H104.825V35.7729Z" fill="#203854"/>
<path d="M112.891 39.298H110.373V35.7729H112.891V31.5072H117.067V35.7729H120.533V39.298H117.067V45.9632C117.067 46.4964 117.156 46.8815 117.393 47.1184C117.63 47.3554 118.015 47.4739 118.548 47.4739H120.711V50.999H117.245C114.342 50.999 112.891 49.5475 112.891 46.6445V39.298Z" fill="#203854"/>
<path d="M125.434 35.7729L129.137 46.7037L132.751 35.7729H137.224L130.47 53.1615C130.115 54.1094 129.759 54.8204 129.463 55.3536C129.137 55.8868 128.722 56.2719 128.248 56.5385C127.774 56.8051 127.152 56.9236 126.382 56.9236H122.324V53.3985H124.634C125.168 53.3985 125.553 53.3096 125.79 53.1319C126.027 52.9541 126.234 52.6283 126.471 52.0951L126.856 51.0879L120.991 35.7729H125.434Z" fill="#203854"/>
</svg>