<svg width="32" height="32" viewBox="0 0 32 32" fill="none" xmlns="http://www.w3.org/2000/svg">
<g filter="url(#filter0_b_588_6726)">
<g clip-path="url(#clip0_588_6726)">
<rect width="32" height="32" rx="4" fill="#273B70"/>
<path d="M25.7786 15.9993C25.7786 21.4027 21.3988 25.7877 15.9902 25.7877C10.5867 25.7825 6.20703 21.4027 6.20703 15.9993C6.20703 10.5959 10.5867 6.21094 15.9954 6.21094C21.3988 6.21094 25.7786 10.5907 25.7786 15.9993Z" fill="#E8F0FC" fill-opacity="0.32"/>
<path d="M15.9995 25.9937C10.4853 25.9937 6 21.5084 6 15.9995C6 10.4853 10.4853 6 15.9995 6C21.5137 6 25.9989 10.4853 25.9989 15.9995C25.9937 21.5084 21.5084 25.9937 15.9995 25.9937ZM15.9995 6.42214C10.7174 6.42214 6.42214 10.7174 6.42214 15.9995C6.42214 21.2815 10.7174 25.5768 15.9995 25.5768C21.2815 25.5768 25.5768 21.2815 25.5768 15.9995C25.5715 10.7174 21.2762 6.42214 15.9995 6.42214Z" fill="white"/>
<path d="M15.9973 22.2153C12.5727 22.2153 9.78125 19.4291 9.78125 15.9992C9.78125 12.5693 12.5674 9.7832 15.9973 9.7832C19.4272 9.7832 22.2133 12.5693 22.2133 15.9992C22.208 19.4239 19.4219 22.2153 15.9973 22.2153ZM15.9973 9.94151C12.6571 9.94151 9.93955 12.659 9.93955 15.9992C9.93955 19.3394 12.6571 22.057 15.9973 22.057C19.3375 22.057 22.055 19.3394 22.055 15.9992C22.0497 12.659 19.3375 9.94151 15.9973 9.94151Z" fill="white"/>
<path d="M15.9932 25.3125C10.8589 25.3125 6.67969 21.1333 6.67969 15.999C6.67969 10.8647 10.8589 6.68555 15.9932 6.68555C21.1275 6.68555 25.3067 10.8647 25.3067 15.999C25.3067 21.1333 21.1275 25.3125 15.9932 25.3125ZM15.9932 6.89134C10.975 6.89134 6.89076 10.9756 6.89076 15.9938C6.89076 21.012 10.975 25.0962 15.9932 25.0962C21.0114 25.0962 25.0956 21.012 25.0956 15.9938C25.0956 10.9756 21.0114 6.89134 15.9932 6.89134Z" fill="white"/>
<path d="M15.9852 21.5836C12.9088 21.5836 10.4023 19.0771 10.4023 16.0008C10.4023 12.9244 12.9088 10.418 15.9852 10.418C19.0615 10.418 21.568 12.9244 21.568 16.0008C21.568 19.0771 19.0668 21.5836 15.9852 21.5836ZM15.9852 10.5763C12.9932 10.5763 10.5606 13.0089 10.5606 16.0008C10.5606 18.9927 12.9932 21.4253 15.9852 21.4253C18.9771 21.4253 21.4097 18.9927 21.4097 16.0008C21.4097 13.0089 18.9771 10.5763 15.9852 10.5763Z" fill="white"/>
<path d="M23.4806 14.9023L23.6389 15.2242L23.9977 15.2717L23.7392 15.525L23.7972 15.8785L23.4806 15.7097L23.164 15.8785L23.2273 15.525L22.9688 15.2717L23.3223 15.2242L23.4806 14.9023Z" fill="white"/>
<path d="M22.564 19.3672L22.7223 19.6891L23.0758 19.7418L22.8173 19.9898L22.8806 20.3434L22.564 20.1798L22.2421 20.3434L22.3054 19.9898L22.0469 19.7418L22.4004 19.6891L22.564 19.3672Z" fill="white"/>
<path d="M23.3087 17.1992L23.467 17.5211L23.8206 17.5739L23.5673 17.8219L23.6253 18.1754L23.3087 18.0118L22.9921 18.1754L23.0502 17.8219L22.7969 17.5739L23.1504 17.5211L23.3087 17.1992Z" fill="white"/>
<path d="M8.43509 14.8926L8.27679 15.2145L7.91797 15.2672L8.17653 15.5205L8.11849 15.8741L8.43509 15.7052L8.7517 15.8741L8.68838 15.5205L8.94694 15.2672L8.59339 15.2145L8.43509 14.8926Z" fill="white"/>
<path d="M9.52357 19.3379L9.36526 19.6598L9.01172 19.7125L9.27028 19.9605L9.20696 20.3141L9.52357 20.1505L9.84017 20.3141L9.78213 19.9605L10.0407 19.7125L9.68187 19.6598L9.52357 19.3379Z" fill="white"/>
<path d="M8.62259 17.1797L8.46429 17.5016L8.10547 17.5543L8.36403 17.8076L8.30599 18.1612L8.62259 17.9923L8.9392 18.1612L8.87588 17.8076L9.13444 17.5543L8.78089 17.5016L8.62259 17.1797Z" fill="white"/>
<path d="M19.4792 15.1165H12.7461V14.6627L16.1127 12.209L19.4792 14.6627V15.1165Z" fill="white"/>
<path d="M19.1771 14.8438H13.0508V15.3609H19.1771V14.8438Z" fill="white"/>
<path d="M19.176 18.6719H12.9336V19.0571H19.176V18.6719Z" fill="white"/>
<path d="M19.486 19.0508H12.6367V19.4096H19.486V19.0508Z" fill="white"/>
<path d="M14.3358 15.4609H13.3438V15.6878H14.3358V15.4609Z" fill="white"/>
<path d="M14.3358 18.3594H13.3438V18.5863H14.3358V18.3594Z" fill="white"/>
<path d="M14.2263 15.5703H13.4453V18.3776H14.2263V15.5703Z" fill="white"/>
<path d="M16.6209 15.4629H15.6289V15.6898H16.6209V15.4629Z" fill="white"/>
<path d="M16.6209 18.3594H15.6289V18.5863H16.6209V18.3594Z" fill="white"/>
<path d="M16.5114 15.5703H15.7305V18.3776H16.5114V15.5703Z" fill="white"/>
<path d="M18.91 15.4609H17.918V15.6878H18.91V15.4609Z" fill="white"/>
<path d="M18.91 18.3594H17.918V18.5863H18.91V18.3594Z" fill="white"/>
<path d="M18.8083 15.5684H18.0273V18.3756H18.8083V15.5684Z" fill="white"/>
<path d="M12.1864 14.3493C12.0809 14.6764 11.7432 14.8664 11.7432 14.8664C11.7432 14.8664 11.5691 14.5181 11.6746 14.191C11.7801 13.8585 12.1178 13.6738 12.1178 13.6738C12.1178 13.6738 12.2867 14.0221 12.1864 14.3493Z" fill="white"/>
<path d="M12.2416 15.4171C11.9672 15.6282 11.582 15.5913 11.582 15.5913C11.582 15.5913 11.6401 15.206 11.9092 14.995C12.1836 14.7839 12.5688 14.8208 12.5688 14.8208C12.5688 14.8208 12.516 15.2008 12.2416 15.4171Z" fill="white"/>
<path d="M11.0408 15.167C11.2043 15.4731 11.5684 15.5944 11.5684 15.5944C11.5684 15.5944 11.674 15.2198 11.5104 14.9137C11.3468 14.6077 10.9827 14.4863 10.9827 14.4863C10.9827 14.4863 10.8772 14.861 11.0408 15.167Z" fill="white"/>
<path d="M12.2063 16.1155C11.9477 16.3477 11.5625 16.3371 11.5625 16.3371C11.5625 16.3371 11.5889 15.9519 11.8474 15.7197C12.106 15.4876 12.4912 15.4981 12.4912 15.4981C12.4912 15.4981 12.4648 15.8833 12.2063 16.1155Z" fill="white"/>
<path d="M10.9935 15.9534C11.1782 16.2436 11.5528 16.3386 11.5528 16.3386C11.5528 16.3386 11.632 15.9586 11.4473 15.6684C11.2626 15.3782 10.888 15.2832 10.888 15.2832C10.888 15.2832 10.8088 15.6579 10.9935 15.9534Z" fill="white"/>
<path d="M12.253 16.7969C12.0261 17.0555 11.6409 17.0871 11.6409 17.0871C11.6409 17.0871 11.625 16.7019 11.8519 16.4381C12.0788 16.1795 12.464 16.1426 12.464 16.1426C12.464 16.1426 12.4851 16.5383 12.253 16.7969Z" fill="white"/>
<path d="M11.0301 16.7871C11.2464 17.0562 11.6316 17.109 11.6316 17.109C11.6316 17.109 11.6633 16.7238 11.4469 16.4547C11.2306 16.1856 10.8454 16.1328 10.8454 16.1328C10.8454 16.1328 10.8137 16.5127 11.0301 16.7871Z" fill="white"/>
<path d="M12.4883 17.5186C12.3247 17.8246 11.9554 17.946 11.9554 17.946C11.9554 17.946 11.8498 17.5714 12.0134 17.2653C12.177 16.9593 12.5464 16.8379 12.5464 16.8379C12.5464 16.8379 12.6519 17.2178 12.4883 17.5186Z" fill="white"/>
<path d="M11.292 17.7765C11.5664 17.9876 11.9516 17.9506 11.9516 17.9506C11.9516 17.9506 11.8936 17.5654 11.6244 17.3544C11.35 17.1433 10.9648 17.1802 10.9648 17.1802C10.9648 17.1802 11.0176 17.5654 11.292 17.7765Z" fill="white"/>
<path d="M12.8733 18.1364C12.7678 18.4635 12.4301 18.6535 12.4301 18.6535C12.4301 18.6535 12.2612 18.3052 12.3667 17.9781C12.4723 17.6509 12.81 17.4609 12.81 17.4609C12.81 17.4609 12.9788 17.8092 12.8733 18.1364Z" fill="white"/>
<path d="M11.7491 18.611C12.0552 18.7693 12.4298 18.6637 12.4298 18.6637C12.4298 18.6637 12.3032 18.2944 11.9971 18.1361C11.6911 17.9778 11.3164 18.0833 11.3164 18.0833C11.3164 18.0833 11.4378 18.4527 11.7491 18.611Z" fill="white"/>
<path d="M12.7388 18.9919C12.7335 18.9919 12.7335 18.9867 12.7283 18.9867C12.438 18.7967 12.0001 18.2954 11.7309 17.525C11.5146 16.9129 11.3457 15.9314 11.7468 14.723C11.7521 14.7019 11.7784 14.6914 11.7995 14.6967C11.8207 14.7019 11.8312 14.7283 11.8259 14.7494C11.1452 16.8021 12.1056 18.4748 12.7757 18.9128C12.7969 18.9233 12.8021 18.9497 12.7863 18.9708C12.7757 18.9919 12.7599 18.9972 12.7388 18.9919Z" fill="white"/>
<path d="M19.8834 14.3493C19.9889 14.6764 20.3266 14.8664 20.3266 14.8664C20.3266 14.8664 20.5007 14.5181 20.3952 14.191C20.2897 13.8585 19.952 13.6738 19.952 13.6738C19.952 13.6738 19.7831 14.0221 19.8834 14.3493Z" fill="white"/>
<path d="M19.8233 15.4171C20.0976 15.6282 20.4828 15.5913 20.4828 15.5913C20.4828 15.5913 20.4248 15.206 20.1557 14.995C19.8813 14.7839 19.4961 14.8208 19.4961 14.8208C19.4961 14.8208 19.5489 15.2008 19.8233 15.4171Z" fill="white"/>
<path d="M21.0338 15.167C20.8702 15.4731 20.5062 15.5944 20.5062 15.5944C20.5062 15.5944 20.4006 15.2198 20.5642 14.9137C20.7278 14.6077 21.0919 14.4863 21.0919 14.4863C21.0919 14.4863 21.1974 14.861 21.0338 15.167Z" fill="white"/>
<path d="M19.8592 16.1155C20.1177 16.3477 20.5029 16.3371 20.5029 16.3371C20.5029 16.3371 20.4765 15.9519 20.218 15.7197C19.9594 15.4876 19.5742 15.4981 19.5742 15.4981C19.5742 15.4981 19.6059 15.8833 19.8592 16.1155Z" fill="white"/>
<path d="M21.0801 15.9534C20.8954 16.2436 20.5208 16.3386 20.5208 16.3386C20.5208 16.3386 20.4416 15.9586 20.6263 15.6684C20.811 15.3782 21.1856 15.2832 21.1856 15.2832C21.1856 15.2832 21.2595 15.6579 21.0801 15.9534Z" fill="white"/>
<path d="M19.8051 16.8008C20.032 17.0594 20.4172 17.091 20.4172 17.091C20.4172 17.091 20.433 16.7058 20.2061 16.442C19.9792 16.1834 19.594 16.1465 19.594 16.1465C19.594 16.1465 19.5782 16.5422 19.8051 16.8008Z" fill="white"/>
<path d="M21.0368 16.7871C20.8204 17.0562 20.4352 17.109 20.4352 17.109C20.4352 17.109 20.4036 16.7238 20.6199 16.4547C20.8363 16.1856 21.2215 16.1328 21.2215 16.1328C21.2215 16.1328 21.2531 16.5127 21.0368 16.7871Z" fill="white"/>
<path d="M19.572 17.5186C19.7356 17.8246 20.105 17.946 20.105 17.946C20.105 17.946 20.2105 17.5714 20.0469 17.2653C19.8833 16.9593 19.514 16.8379 19.514 16.8379C19.514 16.8379 19.4084 17.2178 19.572 17.5186Z" fill="white"/>
<path d="M20.7729 17.7765C20.4985 17.9876 20.1133 17.9506 20.1133 17.9506C20.1133 17.9506 20.1713 17.5654 20.4404 17.3544C20.7148 17.1433 21.1 17.1802 21.1 17.1802C21.1 17.1802 21.042 17.5654 20.7729 17.7765Z" fill="white"/>
<path d="M19.1909 18.1364C19.2965 18.4635 19.6342 18.6535 19.6342 18.6535C19.6342 18.6535 19.8031 18.3052 19.6975 17.9781C19.592 17.6509 19.2543 17.4609 19.2543 17.4609C19.2543 17.4609 19.0854 17.8092 19.1909 18.1364Z" fill="white"/>
<path d="M20.3174 18.611C20.0114 18.7693 19.6367 18.6637 19.6367 18.6637C19.6367 18.6637 19.7634 18.2944 20.0694 18.1361C20.3755 17.9778 20.7501 18.0833 20.7501 18.0833C20.7501 18.0833 20.6235 18.4527 20.3174 18.611Z" fill="white"/>
<path d="M19.3301 18.9919C19.3354 18.9919 19.3354 18.9867 19.3407 18.9867C19.6309 18.7967 20.0689 18.2954 20.338 17.525C20.5543 16.9129 20.7232 15.9314 20.3222 14.723C20.3169 14.7019 20.2905 14.6914 20.2694 14.6967C20.2483 14.7019 20.2377 14.7283 20.243 14.7494C20.9237 16.8021 19.9633 18.4748 19.2932 18.9128C19.2721 18.9233 19.2668 18.9497 19.2826 18.9708C19.2932 18.9919 19.3143 18.9972 19.3301 18.9919Z" fill="white"/>
<path d="M8.23047 13.7547L8.27268 13.6227L8.96394 13.8391L9.06947 13.4961L9.18556 13.533L9.03781 14.0079L8.23047 13.7547Z" fill="white"/>
<path d="M8.64261 12.625L9.4183 12.968L9.36553 13.0946L8.58984 12.7516L8.64261 12.625Z" fill="white"/>
<path d="M9.19099 11.6094L9.29653 11.6727L9.09601 12.0157L9.30708 12.1423L9.47594 11.8627L9.58147 11.926L9.41261 12.2056L9.72394 12.3903L9.65535 12.5064L8.92188 12.0685L9.19099 11.6094Z" fill="white"/>
<path d="M9.87815 10.6934L9.97313 10.7725L9.71457 11.0891L9.89925 11.2369L10.1103 10.973L10.2053 11.0469L9.99423 11.3107L10.1842 11.4638L10.448 11.1366L10.543 11.2158L10.1895 11.6485L9.53516 11.1208L9.87815 10.6934Z" fill="white"/>
<path d="M10.4328 10.188C10.4539 10.1194 10.4961 10.0614 10.5541 10.0033C10.6016 9.9611 10.6491 9.93471 10.7072 9.91888C10.7599 9.90305 10.8127 9.90305 10.8707 9.91361C10.9235 9.92416 10.9763 9.95054 11.0185 9.98748L10.913 10.0825C10.8655 10.0508 10.818 10.035 10.7705 10.0402C10.723 10.0455 10.6755 10.0666 10.6333 10.1036C10.5964 10.1405 10.57 10.1774 10.5594 10.2249C10.5489 10.2724 10.5489 10.3199 10.5647 10.3674C10.5805 10.4149 10.6069 10.4624 10.6491 10.5099C10.6913 10.5521 10.7336 10.589 10.781 10.6101C10.8285 10.6312 10.876 10.6365 10.9235 10.6312C10.971 10.626 11.0132 10.6049 11.0502 10.5679C11.0924 10.531 11.1188 10.4835 11.124 10.436C11.1346 10.3885 11.124 10.3357 11.0976 10.2883L11.1979 10.1986C11.2296 10.2513 11.2507 10.2988 11.256 10.3569C11.2612 10.4096 11.256 10.4624 11.2348 10.5152C11.2137 10.5679 11.1821 10.6154 11.1346 10.6576C11.0765 10.7104 11.0079 10.7473 10.9393 10.7632C10.8707 10.779 10.8021 10.7737 10.7336 10.7473C10.665 10.721 10.6016 10.6735 10.5436 10.6101C10.4855 10.5468 10.4486 10.4782 10.4275 10.4096C10.4064 10.341 10.4117 10.2566 10.4328 10.188Z" fill="white"/>
<path d="M11.4961 9.28892L11.6333 9.19922L12.3562 9.74273L12.2348 9.82188L12.0554 9.68996L11.7652 9.87464L11.8127 10.091L11.6913 10.1701L11.4961 9.28892ZM11.9604 9.61081L11.6491 9.37335L11.7388 9.75856L11.9604 9.61081Z" fill="white"/>
<path d="M12.8665 8.59702C12.914 8.6023 12.9615 8.61285 12.9984 8.64451C13.0354 8.6709 13.067 8.71311 13.0881 8.7606C13.1092 8.81337 13.1198 8.86614 13.1092 8.91363C13.0987 8.9664 13.0776 9.00861 13.0354 9.04555L13.3361 9.283L13.1989 9.34632L12.9298 9.12998L12.761 9.20385L12.8876 9.48352L12.761 9.53629L12.418 8.7606L12.7187 8.62868C12.7662 8.6023 12.819 8.59175 12.8665 8.59702ZM12.8718 9.01389C12.9193 8.99278 12.9456 8.9664 12.9615 8.92946C12.9773 8.89252 12.9773 8.85558 12.9562 8.81337C12.9351 8.77116 12.9087 8.74477 12.8718 8.73422C12.8348 8.72366 12.7926 8.72366 12.7451 8.74477L12.5815 8.81865L12.7029 9.09304L12.8718 9.01389Z" fill="white"/>
<path d="M13.8146 8.23922C13.899 8.21811 13.9729 8.21811 14.0415 8.23394C14.1101 8.24977 14.1734 8.28671 14.2209 8.33948C14.2684 8.39224 14.3054 8.46084 14.3265 8.53999C14.3476 8.61914 14.3476 8.6983 14.3317 8.76689C14.3159 8.83549 14.279 8.89881 14.2262 8.95158C14.1734 9.00435 14.1048 9.03601 14.0257 9.06239L13.7671 9.13099L13.5508 8.30781L13.8146 8.23922ZM14.1787 8.80911C14.2104 8.74579 14.2157 8.66664 14.1945 8.57693C14.1682 8.48723 14.1259 8.4239 14.0679 8.38169C14.0046 8.33948 13.9307 8.3342 13.8463 8.35531L13.7196 8.38697L13.8727 8.97269L13.9993 8.94103C14.089 8.91992 14.1471 8.87243 14.1787 8.80911Z" fill="white"/>
<path d="M15.727 8.44582C15.727 8.52497 15.7429 8.58829 15.7745 8.62523C15.8062 8.66216 15.8537 8.68327 15.917 8.68327C15.9856 8.68327 16.0331 8.66216 16.0648 8.62523C16.0964 8.58301 16.1122 8.52497 16.1122 8.44582V7.95508H16.2494V8.44054C16.2494 8.56191 16.2231 8.65161 16.165 8.71493C16.107 8.77825 16.0278 8.80991 15.917 8.80991C15.8115 8.80991 15.727 8.77825 15.6743 8.71493C15.6162 8.65161 15.5898 8.56191 15.5898 8.44054V7.95508H15.727V8.44582Z" fill="white"/>
<path d="M16.8858 8L17.0072 8.02111L17.3132 8.6807L17.4082 8.08443L17.5401 8.10554L17.4082 8.94454L17.2869 8.92343L16.9808 8.26384L16.8858 8.86011L16.7539 8.83901L16.8858 8Z" fill="white"/>
<path d="M18.2926 8.29807L18.0499 9.1107L17.918 9.06848L18.166 8.25586L18.2926 8.29807Z" fill="white"/>
<path d="M18.9466 8.51956L18.8938 9.2372L19.374 8.69897L19.5059 8.75702L18.8991 9.42717L18.7461 9.36385L18.8094 8.4668L18.9466 8.51956Z" fill="white"/>
<path d="M20.4726 9.31092L20.4093 9.41645L20.0611 9.20538L19.9397 9.4059L20.2246 9.58003L20.1613 9.68029L19.8764 9.50616L19.7497 9.71723L20.1085 9.93885L20.0452 10.0444L19.5703 9.75417L20.0136 9.03125L20.4726 9.31092Z" fill="white"/>
<path d="M21.3228 10.0057C21.3439 10.0532 21.3492 10.0954 21.3387 10.1429C21.3334 10.1904 21.3123 10.2326 21.2753 10.2748C21.2384 10.317 21.1962 10.3487 21.1434 10.3592C21.0907 10.3751 21.0432 10.3698 20.9957 10.3539L20.9112 10.7286L20.7952 10.6283L20.8743 10.2906L20.7318 10.1693L20.5313 10.4067L20.4258 10.317L20.9746 9.66797L21.2279 9.87904C21.2753 9.92125 21.307 9.95819 21.3228 10.0057ZM20.9535 10.1956C20.9904 10.2273 21.0326 10.2431 21.0695 10.2379C21.1065 10.2326 21.1434 10.2168 21.1751 10.1851C21.2067 10.1482 21.2173 10.1112 21.212 10.0743C21.2067 10.0373 21.1856 10.0004 21.1487 9.96874L21.0115 9.85266L20.8215 10.0796L20.9535 10.1956Z" fill="white"/>
<path d="M21.4731 11.0786C21.4731 11.1261 21.4942 11.1736 21.5311 11.2158C21.5628 11.2527 21.5997 11.2791 21.6367 11.2844C21.6736 11.2949 21.7053 11.2844 21.7369 11.258C21.758 11.2369 21.7686 11.2158 21.7686 11.1947C21.7686 11.1683 21.7633 11.1472 21.7528 11.1155C21.7422 11.0891 21.7211 11.0522 21.6894 11.0047C21.663 10.9572 21.6419 10.915 21.6261 10.8728C21.6103 10.8358 21.6103 10.7936 21.6156 10.7567C21.6208 10.7198 21.6472 10.6775 21.6894 10.6459C21.7264 10.6142 21.7686 10.5931 21.8108 10.5878C21.8583 10.5826 21.9005 10.5878 21.948 10.6089C21.9955 10.6301 22.0377 10.6617 22.0746 10.7039C22.1116 10.7461 22.1432 10.7936 22.1538 10.8464C22.1696 10.8992 22.1696 10.9467 22.1591 10.9942C22.1485 11.0416 22.1221 11.0839 22.0852 11.1155L21.9955 11.0153C22.0271 10.9836 22.0377 10.9467 22.0377 10.9044C22.0377 10.8622 22.0166 10.82 21.9849 10.7831C21.9533 10.7461 21.9216 10.725 21.8847 10.7145C21.8477 10.7092 21.8161 10.7145 21.7897 10.7409C21.7686 10.7567 21.758 10.7778 21.758 10.8042C21.758 10.8253 21.7633 10.8517 21.7739 10.8781C21.7844 10.9044 21.8055 10.9414 21.8372 10.9889C21.8636 11.0364 21.8847 11.0786 21.9005 11.1208C21.9163 11.163 21.9163 11.1999 21.9111 11.2422C21.9058 11.2791 21.8794 11.316 21.8425 11.353C21.8055 11.3846 21.7633 11.4057 21.7158 11.411C21.6683 11.4163 21.6208 11.411 21.5733 11.3899C21.5259 11.3688 21.4836 11.3371 21.4414 11.2897C21.3992 11.2422 21.3675 11.1894 21.3517 11.1366C21.3359 11.0839 21.3359 11.0311 21.3517 10.9836C21.3675 10.9361 21.3939 10.8886 21.4361 10.8517L21.5259 10.9519C21.4889 10.9889 21.4731 11.0311 21.4731 11.0786Z" fill="white"/>
<path d="M22.7146 11.5483L22.0127 12.0285L21.9336 11.9177L22.6354 11.4375L22.7146 11.5483Z" fill="white"/>
<path d="M23.3182 12.6084L23.2074 12.6664L23.086 12.4395L22.4422 12.7772L22.3789 12.6559L23.0227 12.3181L22.9013 12.0912L23.0121 12.0332L23.3182 12.6084Z" fill="white"/>
<path d="M23.5905 13.2532L23.2897 13.5857L23.733 13.6754L23.7805 13.8231L23.1737 13.7017L22.8782 13.802L22.8359 13.6701L23.1314 13.5698L23.5377 13.1055L23.5905 13.2532Z" fill="white"/>
<path d="M12.2336 21.9893L12.1597 22.0895L11.8273 21.8468L11.6901 22.0368L11.9645 22.2373L11.8959 22.3323L11.6215 22.1317L11.4737 22.3323L11.822 22.5855L11.7481 22.6858L11.2891 22.3481L11.7904 21.6621L12.2336 21.9893Z" fill="white"/>
<path d="M12.6717 23.0379C12.6928 23.0801 12.7297 23.117 12.7825 23.1434C12.83 23.1645 12.8722 23.1751 12.9091 23.1698C12.946 23.1645 12.9777 23.1434 12.9935 23.1065C13.0041 23.0801 13.0094 23.059 12.9988 23.0326C12.9883 23.0115 12.9724 22.9904 12.9513 22.9693C12.9302 22.9482 12.8933 22.9218 12.8511 22.8901C12.8036 22.8585 12.7666 22.8268 12.7403 22.7952C12.7139 22.7635 12.6928 22.7266 12.6875 22.6896C12.6769 22.6474 12.6875 22.6052 12.7086 22.5577C12.7297 22.5155 12.7614 22.4785 12.7983 22.4574C12.8352 22.4363 12.8827 22.4258 12.9355 22.4258C12.9883 22.4258 13.0358 22.4416 13.0885 22.468C13.1413 22.4944 13.1888 22.526 13.2204 22.5683C13.2521 22.6105 13.2732 22.6527 13.2838 22.7002C13.2943 22.7477 13.2838 22.7952 13.2627 22.8426L13.1413 22.7846C13.1571 22.7424 13.1518 22.7054 13.136 22.6632C13.1202 22.6263 13.0832 22.5946 13.041 22.5735C12.9988 22.5524 12.9566 22.5419 12.9197 22.5524C12.8827 22.5577 12.8563 22.5788 12.8405 22.6157C12.83 22.6421 12.8247 22.6632 12.8352 22.6843C12.8458 22.7055 12.8616 22.7266 12.8827 22.7477C12.9038 22.7688 12.9408 22.7952 12.983 22.8268C13.0305 22.8585 13.0674 22.8901 13.0938 22.9218C13.1202 22.9535 13.1413 22.9904 13.1518 23.0273C13.1624 23.0643 13.1518 23.1118 13.1307 23.154C13.1096 23.2015 13.078 23.2331 13.0358 23.2595C12.9935 23.2859 12.946 23.2964 12.8933 23.2964C12.8405 23.2964 12.7877 23.2806 12.735 23.2542C12.6769 23.2226 12.6242 23.1909 12.5925 23.1434C12.5608 23.0959 12.5345 23.0537 12.5292 23.0009C12.5239 22.9482 12.5292 22.9007 12.5556 22.8479L12.6769 22.9112C12.6505 22.9482 12.6505 22.9957 12.6717 23.0379Z" fill="white"/>
<path d="M14.5764 23.0023L14.5447 23.1236L14.2915 23.055L14.0962 23.7568L13.9643 23.7199L14.1595 23.0181L13.9062 22.9495L13.9379 22.8281L14.5764 23.0023Z" fill="white"/>
<path d="M15.097 23.7852C15.1233 23.7904 15.1392 23.801 15.155 23.8168C15.1708 23.8326 15.1761 23.8538 15.1708 23.8801C15.1656 23.9065 15.155 23.9224 15.1392 23.9382C15.1233 23.9487 15.1022 23.954 15.0759 23.954C15.0495 23.9487 15.0336 23.9382 15.0178 23.9224C15.002 23.9065 14.9967 23.8854 15.002 23.859C15.0073 23.8326 15.0178 23.8168 15.0336 23.801C15.0547 23.7904 15.0759 23.7852 15.097 23.7852Z" fill="white"/>
<path d="M16.3624 23.519C16.3835 23.4873 16.394 23.4504 16.394 23.4134C16.394 23.3659 16.3782 23.329 16.3466 23.3026C16.3149 23.2762 16.278 23.2657 16.2252 23.2657C16.1777 23.2657 16.1355 23.2815 16.1091 23.3132C16.0827 23.3448 16.0669 23.3871 16.0669 23.4398V23.4557L15.9297 23.4609V23.4398C15.9297 23.3871 15.9402 23.3396 15.9613 23.2974C15.9877 23.2551 16.0194 23.2235 16.0616 23.1971C16.1038 23.1707 16.1566 23.1602 16.2146 23.1602C16.3096 23.1602 16.3835 23.1813 16.4363 23.2288C16.489 23.2762 16.5154 23.3396 16.5207 23.4187C16.5207 23.4768 16.5101 23.5243 16.4785 23.5717C16.4468 23.614 16.4046 23.6614 16.3466 23.7142L16.1249 23.9042L16.5365 23.8936V24.0097L15.935 24.0203V23.9147L16.2568 23.6298C16.3096 23.5876 16.3413 23.5559 16.3624 23.519Z" fill="white"/>
<path d="M17.2631 23.2657C17.2789 23.1971 17.3053 23.1444 17.3475 23.0969C17.3898 23.0547 17.4425 23.023 17.5058 23.0125C17.5692 23.0019 17.6272 23.0019 17.6853 23.0283C17.7433 23.0494 17.7908 23.0916 17.833 23.1444C17.8752 23.1971 17.9016 23.2657 17.9174 23.3449L17.928 23.3818C17.9438 23.4663 17.9438 23.5401 17.9333 23.6035C17.9174 23.672 17.891 23.7248 17.8488 23.767C17.8066 23.8092 17.7538 23.8356 17.6905 23.8515C17.6272 23.8673 17.5639 23.862 17.5111 23.8409C17.4584 23.8198 17.4056 23.7776 17.3686 23.7248C17.3264 23.672 17.3 23.5982 17.2842 23.519L17.2737 23.4821C17.2526 23.4029 17.2473 23.3291 17.2631 23.2657ZM17.5375 23.1233C17.4795 23.1338 17.4372 23.1708 17.4109 23.2288C17.3845 23.2868 17.3845 23.366 17.4003 23.4557L17.4056 23.4821C17.4267 23.5718 17.4584 23.6404 17.5058 23.6879C17.5533 23.7301 17.6061 23.7459 17.6641 23.7354C17.7222 23.7248 17.7644 23.6879 17.7908 23.6298C17.8172 23.5718 17.8172 23.4926 17.8013 23.4029L17.7961 23.3765C17.775 23.2868 17.7433 23.2182 17.6958 23.1708C17.6483 23.1285 17.5955 23.1127 17.5375 23.1233Z" fill="white"/>
<path d="M18.9922 22.9358C19.0028 22.8989 18.9975 22.8619 18.9817 22.8303C18.9658 22.7881 18.9342 22.7564 18.8972 22.7459C18.8603 22.73 18.8181 22.7353 18.7706 22.7511C18.7231 22.767 18.6967 22.7986 18.6809 22.8408C18.6651 22.8831 18.6651 22.9253 18.6862 22.9728L18.6915 22.9886L18.5648 23.0414L18.5543 23.0203C18.5332 22.9728 18.5279 22.92 18.5332 22.8725C18.5384 22.825 18.5595 22.7828 18.5912 22.7406C18.6229 22.7036 18.6651 22.672 18.7231 22.6456C18.8128 22.6087 18.8867 22.6034 18.9553 22.6298C19.0239 22.6562 19.0714 22.7036 19.0978 22.7775C19.1189 22.8303 19.1242 22.8831 19.1136 22.9358C19.103 22.9886 19.0767 23.0466 19.0397 23.1152L18.9025 23.3738L19.2825 23.2208L19.3247 23.3316L18.7653 23.5585L18.7231 23.4582L18.9184 23.0783C18.9658 23.015 18.9817 22.9728 18.9922 22.9358Z" fill="white"/>
<path d="M19.7395 22.3668C19.7289 22.2982 19.7342 22.2349 19.7606 22.1822C19.787 22.1241 19.8239 22.0819 19.8767 22.045C19.9294 22.008 19.9875 21.9922 20.0508 21.9922C20.1141 21.9922 20.1722 22.0133 20.2302 22.0502C20.2883 22.0872 20.341 22.1399 20.3832 22.2085L20.4043 22.2402C20.4518 22.3088 20.4782 22.3774 20.4888 22.446C20.4993 22.5146 20.494 22.5726 20.4677 22.6307C20.4413 22.6834 20.4043 22.7309 20.3463 22.7679C20.2883 22.8048 20.2302 22.8206 20.1722 22.8206C20.1141 22.8206 20.0508 22.7995 19.998 22.7626C19.9453 22.7257 19.8872 22.6729 19.845 22.599L19.8239 22.5674C19.7764 22.504 19.75 22.4354 19.7395 22.3668ZM19.94 22.1399C19.8872 22.1716 19.8608 22.2191 19.8608 22.2877C19.8608 22.351 19.8819 22.4249 19.9347 22.504L19.9505 22.5304C20.0033 22.6096 20.0561 22.6623 20.1141 22.6834C20.1722 22.7098 20.2302 22.7046 20.2777 22.6729C20.3305 22.6412 20.3569 22.5937 20.3569 22.5251C20.3569 22.4565 20.3357 22.3879 20.283 22.3088L20.2671 22.2824C20.2144 22.2033 20.1616 22.1505 20.1036 22.1294C20.0455 22.103 19.9928 22.1083 19.94 22.1399Z" fill="white"/>
</g>
</g>
<defs>
<filter id="filter0_b_588_6726" x="-4" y="-4" width="40" height="40" filterUnits="userSpaceOnUse" color-interpolation-filters="sRGB">
<feFlood flood-opacity="0" result="BackgroundImageFix"/>
<feGaussianBlur in="BackgroundImageFix" stdDeviation="2"/>
<feComposite in2="SourceAlpha" operator="in" result="effect1_backgroundBlur_588_6726"/>
<feBlend mode="normal" in="SourceGraphic" in2="effect1_backgroundBlur_588_6726" result="shape"/>
</filter>
<clipPath id="clip0_588_6726">
<rect width="32" height="32" rx="4" fill="white"/>
</clipPath>
</defs>
</svg>
